<?xml version="1.0" standalone="no"?>
<!DOCTYPE svg PUBLIC "-//W3C//DTD SVG 20010904//EN"
 "http://www.w3.org/TR/2001/REC-SVG-20010904/DTD/svg10.dtd">
<svg version="1.0" xmlns="http://www.w3.org/2000/svg"
 width="184.000000pt" height="184.000000pt" viewBox="0 0 184.000000 184.000000"
 preserveAspectRatio="xMidYMid meet">
<metadata>
Created by potrace 1.14, written by Peter Selinger 2001-2017
</metadata>
<g transform="translate(0.000000,184.000000) scale(0.100000,-0.100000)"
fill="#000000" stroke="none">
<path d="M510 1178 l0 -453 65 -54 c36 -29 89 -83 119 -120 56 -69 153 -216
174 -263 6 -16 18 -28 25 -28 11 0 13 69 10 398 -4 395 -4 397 -30 472 -54
160 -144 301 -269 425 -42 41 -80 75 -85 75 -5 0 -9 -186 -9 -452z"/>
<path d="M1320 1603 c-118 -99 -257 -307 -312 -466 l-26 -78 -2 -387 c-2 -464
-4 -420 15 -401 9 8 25 34 38 57 63 118 199 285 300 367 l36 30 3 449 c2 323
0 450 -8 453 -6 2 -26 -9 -44 -24z"/>
<path d="M1520 1472 c-8 -3 -27 -14 -42 -24 l-28 -19 0 -366 0 -366 -37 -31
c-98 -84 -161 -148 -215 -220 -110 -147 -116 -185 -17 -104 93 76 169 125 257
164 42 19 84 38 92 43 13 7 15 71 18 461 1 250 -1 457 -5 461 -5 3 -15 4 -23
1z"/>
<path d="M330 1014 l0 -455 38 -15 c118 -49 256 -132 350 -211 29 -25 55 -43
57 -41 6 6 -97 159 -147 220 -22 26 -75 77 -119 114 l-79 66 0 369 0 369 -40
20 c-21 11 -44 20 -50 20 -7 0 -10 -147 -10 -456z"/>
<path d="M160 857 l0 -465 53 -7 c119 -15 333 -82 446 -140 29 -14 55 -24 58
-22 5 6 -109 98 -181 147 -26 18 -99 57 -162 87 l-114 54 0 394 c0 216 -3 396
-7 398 -5 3 -27 8 -50 12 l-43 7 0 -465z"/>
<path d="M1643 1310 l-23 -9 0 -395 c0 -305 -3 -397 -12 -403 -7 -4 -51 -24
-98 -43 -113 -48 -340 -201 -340 -230 0 -6 21 0 48 14 116 58 330 126 450 141
l52 7 0 464 0 464 -27 -1 c-16 0 -38 -4 -50 -9z"/>
<path d="M940 337 c0 -13 -5 -28 -11 -34 -8 -8 -8 -13 0 -17 19 -12 31 4 31
40 0 19 -4 34 -10 34 -5 0 -10 -10 -10 -23z"/>
</g>
</svg>
